# xmcd
#
# Track frame offsets: 
#        150
#        13011
#        24075
#        35623
#        48355
#        59818
#        69192
#        78556
#        88251
#        99581
#        111773
#        122717
#        132377
#        143606
#        152329
#        162071
#        171836
#        183253
#        197932
#        209557
#        223269
#        235003
#        245675
#        255309
#        265278
#        274950
#        284777
#        294705
#        304608
#        315074
#        324800
#        337083
#        347844
#
# Disc length: 4777 seconds
#
# Revision: 0
# Processed by: cddbd v1.5.2PL0 Copyright (c) Steve Scherf et al.
# Submitted via: ExactAudioCopyFreeDBPlugin 1.0
#
DISCID=eb12a721
DTITLE=Various Artist - In The Shadow Of The Sun - Memphis Area R&B A
DTITLE=nd Rock And Roll [CD 1)
DYEAR=1900
DGENRE=
TTITLE0=Moohah - All Shook Out
TTITLE1=Fenton Robinson with The Dukes - Tennessee Woman
TTITLE2=Hayden Tompson and His Southern Melody Boys - Act Like You Love 
TTITLE2=Me
TTITLE3=Curley Griffin - I've Seen It All
TTITLE4=Eddie Bond - Talking Off The Wall
TTITLE5=Jess Hooper and The Daydreamers - All Messed Up
TTITLE6=Lloyd McCullugh and The Driftin Hillbillies - Oh Darling
TTITLE7=Audrey Cagle - Want To Be Wanted Blues
TTITLE8=Joe Hill Louis - Jack Pot
TTITLE9=Mac Sales and The Esquire Trio - A Gal Named Joe
TTITLE10=Johnny Burnette - You're Undecided
TTITLE11=Curley Griffin - You Gotta Pay Fair
TTITLE12=Brad Suggs with The Swingsters - Charcoal Suit
TTITLE13=Wayne McGinnis with The Swing Teens - Lonesome Rhythm Blues
TTITLE14=Dale Vaughn and The Starnotes - High Steppin
TTITLE15=Eddie Bond - Love Makes A Fool (Every Day)
TTITLE16=Curley Griffin - Got Rockin On My Mind
TTITLE17=Little Milton with Playmates of Rhythm - Let's Boggie Baby
TTITLE18=Moohah - Candy
TTITLE19=Joe Hill Louis - Galamour Girl
TTITLE20=Hayden Thompson and His Southern Melody Boys - I Feel The Blues
TTITLE20=Coming On
TTITLE21=Jess Hooper and The Daydreamers - Sleepy Time Blues
TTITLE22=Johnny Burnette - Go Mule Go
TTITLE23=Lloyd McCullugh and The Driftin Hillbillies - Watch That Girl
TTITLE24=Brad Suggs with The Swingsters - Bop Baby Bop
TTITLE25=Aubrey Cagle - Real Cool
TTITLE26=Wayne McGinnis with The Swing Teens - Rock Roll And Rhythm
TTITLE27=Curley Griffin - Gotta Whip This Bear
TTITLE28=Jimmy Lamberth with The Saxons - Latch On To Your Baby
TTITLE29=Del Rios with The Bearcats - Lizzie
TTITLE30=Curley Griffin - Rock Bottom Blues
TTITLE31=Rossevelt Sykes - Sputnik Baby
TTITLE32=Dale Vaughn and The Starnotes - How Can You Be Mean To Me
EXTD=
EXTT0=
EXTT1=
EXTT2=
EXTT3=
EXTT4=
EXTT5=
EXTT6=
EXTT7=
EXTT8=
EXTT9=
EXTT10=
EXTT11=
EXTT12=
EXTT13=
EXTT14=
EXTT15=
EXTT16=
EXTT17=
EXTT18=
EXTT19=
EXTT20=
EXTT21=
EXTT22=
EXTT23=
EXTT24=
EXTT25=
EXTT26=
EXTT27=
EXTT28=
EXTT29=
EXTT30=
EXTT31=
EXTT32=
PLAYORDER=
